<?xml version="1.0" standalone="no"?>
<!DOCTYPE svg PUBLIC "-//W3C//DTD SVG 20010904//EN"
 "http://www.w3.org/TR/2001/REC-SVG-20010904/DTD/svg10.dtd">
<svg version="1.0" xmlns="http://www.w3.org/2000/svg"
 width="1080.000000pt" height="1080.000000pt" viewBox="0 0 1080.000000 1080.000000"
 preserveAspectRatio="xMidYMid meet">
<metadata>
Created by potrace 1.11, written by Peter Selinger 2001-2013
</metadata>
<g transform="translate(0.000000,1080.000000) scale(0.100000,-0.100000)"
fill="#000000" stroke="none">
<path d="M5265 9024 c-22 -2 -89 -8 -150 -14 -479 -45 -984 -204 -1410 -443
-938 -526 -1595 -1440 -1794 -2497 -45 -243 -55 -363 -56 -665 0 -319 12 -449
66 -716 275 -1375 1328 -2477 2683 -2809 739 -181 1511 -128 2220 152 1103
436 1942 1425 2195 2588 104 477 111 992 20 1460 -135 700 -464 1334 -954
1839 -592 611 -1347 984 -2200 1086 -123 15 -534 28 -620 19z m2636 -2617
c120 -31 238 -85 267 -122 28 -35 44 -96 36 -132 -11 -49 -47 -103 -81 -124
-45 -28 -122 -21 -233 19 -203 74 -425 60 -593 -37 -328 -190 -449 -599 -276
-931 94 -181 249 -307 439 -357 113 -29 365 -16 473 26 l27 11 0 184 0 184
-162 4 c-127 3 -170 8 -195 21 -64 34 -100 108 -88 184 8 56 61 118 113 133
21 5 153 10 302 10 297 0 324 -6 371 -71 l24 -34 3 -360 c2 -198 0 -370 -3
-383 -23 -93 -270 -216 -517 -258 -130 -22 -325 -15 -448 16 -100 25 -267 102
-354 164 -194 139 -344 357 -408 594 -31 117 -36 328 -10 452 41 199 126 360
267 509 162 169 351 272 582 316 119 22 340 14 464 -18z m-4301 -6 c19 -10 42
-29 52 -42 30 -41 750 -1761 755 -1806 13 -105 -88 -198 -193 -179 -72 14
-103 58 -194 271 l-83 195 -432 0 -431 0 -83 -195 c-45 -106 -91 -205 -101
-218 -63 -80 -205 -73 -254 12 -42 73 -48 57 353 1015 204 489 379 898 389
909 51 59 152 76 222 38z m1290 -6 c28 -15 62 -50 79 -82 8 -15 11 -184 11
-570 0 -301 5 -580 10 -619 23 -181 125 -316 285 -376 79 -30 233 -32 312 -5
124 43 238 150 286 267 22 54 22 62 27 670 5 669 3 642 62 697 45 42 144 46
203 7 13 -9 33 -35 45 -58 19 -41 20 -58 20 -642 0 -702 -1 -713 -91 -894 -45
-90 -64 -117 -138 -190 -138 -137 -269 -198 -472 -222 -177 -21 -378 18 -519
99 -80 47 -223 188 -269 266 -18 31 -45 88 -58 125 -51 139 -53 169 -53 821
l0 608 23 33 c54 81 152 107 237 65z"/>
<path d="M3457 5743 c-25 -59 -89 -209 -141 -333 -53 -123 -96 -228 -96 -232
0 -5 129 -8 286 -8 267 0 285 1 280 18 -3 9 -68 163 -145 340 l-138 324 -46
-109z"/>
</g>
</svg>
