<?xml version="1.0" standalone="no"?>
<!DOCTYPE svg PUBLIC "-//W3C//DTD SVG 20010904//EN"
 "http://www.w3.org/TR/2001/REC-SVG-20010904/DTD/svg10.dtd">
<svg version="1.0" xmlns="http://www.w3.org/2000/svg"
 width="2048.000000pt" height="2048.000000pt" viewBox="0 0 2048.000000 2048.000000"
 preserveAspectRatio="xMidYMid meet">
<metadata>
Created by potrace 1.11, written by Peter Selinger 2001-2013
</metadata>
<g transform="translate(0.000000,2048.000000) scale(0.100000,-0.100000)"
fill="#000000" stroke="none">
<path d="M0 15322 l0 -5158 648 -374 c356 -206 715 -413 797 -460 83 -48 209
-120 280 -162 72 -41 425 -245 785 -453 360 -208 756 -437 880 -508 124 -71
295 -170 380 -219 85 -50 277 -160 425 -246 149 -85 365 -210 480 -277 116
-67 334 -193 485 -280 151 -87 428 -247 615 -355 187 -108 504 -292 705 -407
523 -302 1183 -683 1335 -771 72 -41 186 -108 255 -147 69 -40 170 -98 225
-130 55 -32 233 -134 395 -228 162 -93 347 -200 410 -237 63 -36 178 -103 255
-147 290 -167 873 -504 1235 -713 206 -119 524 -302 705 -407 182 -105 476
-275 655 -378 463 -268 598 -346 830 -480 113 -65 642 -370 1175 -678 534
-308 1128 -651 1320 -762 193 -111 571 -329 840 -485 270 -156 549 -317 620
-358 72 -41 231 -133 355 -205 124 -72 290 -168 370 -214 l145 -83 1438 0
1437 0 0 10240 0 10240 -10240 0 -10240 0 0 -5158z m6674 -420 c11 -26 251
-598 534 -1272 283 -674 517 -1233 519 -1242 5 -17 -8 -18 -183 -18 l-189 0
-127 323 -126 322 -482 0 -482 0 -130 -322 -131 -323 -164 0 c-90 0 -162 3
-159 8 4 7 1038 2471 1065 2540 18 44 33 40 55 -16z m6401 -460 c49 -34 75
-83 75 -142 0 -137 -159 -219 -283 -147 -25 15 -55 42 -67 62 -26 42 -29 119
-6 163 18 36 72 79 113 92 48 16 124 3 168 -28z m1476 -623 c196 -54 347 -186
440 -384 39 -84 75 -193 65 -202 -5 -5 -1104 -393 -1113 -393 -13 0 41 -70 85
-110 163 -151 419 -159 629 -20 l32 21 27 -43 c15 -24 47 -73 71 -111 24 -37
43 -71 43 -76 0 -14 -93 -65 -181 -99 -304 -121 -665 -61 -874 144 -143 141
-215 321 -215 538 0 168 31 274 117 410 121 189 323 313 563 346 88 12 226 3
311 -21z m-3896 -4 c68 -19 186 -75 228 -109 l29 -23 -62 -97 -62 -96 -38 30
c-92 73 -237 113 -333 91 -102 -22 -159 -82 -159 -166 0 -98 54 -141 268 -215
218 -75 310 -131 369 -224 123 -194 31 -490 -186 -598 -96 -48 -171 -62 -314
-62 -98 1 -149 6 -206 22 -103 28 -206 81 -268 139 l-52 48 68 91 68 91 45
-39 c25 -21 82 -57 127 -80 72 -36 92 -41 170 -45 50 -3 106 -1 129 6 124 34
183 138 137 243 -28 62 -88 98 -257 154 -173 56 -245 94 -311 160 -120 119
-147 302 -70 460 54 110 178 201 313 229 84 18 282 12 367 -10z m1395 0 c71
-17 188 -72 233 -109 l28 -23 -61 -96 -62 -97 -38 30 c-92 73 -237 113 -333
91 -102 -22 -159 -82 -159 -166 0 -97 56 -142 267 -215 219 -75 310 -131 370
-224 125 -199 27 -499 -197 -604 -97 -45 -159 -57 -303 -57 -103 1 -146 5
-208 23 -111 32 -203 79 -265 137 l-53 50 67 92 67 92 46 -38 c100 -84 218
-131 326 -131 192 0 299 116 236 256 -26 58 -90 96 -255 150 -236 77 -327 140
-386 266 -115 246 33 519 315 582 85 19 268 15 365 -9z m-3608 -522 l3 -498
27 -58 c51 -108 132 -153 262 -145 160 10 298 134 367 328 22 63 23 78 27 468
l3 402 160 0 159 0 0 -710 0 -710 -144 0 -144 0 -6 98 c-4 53 -9 114 -12 134
l-6 38 -40 -60 c-105 -158 -307 -260 -512 -260 -168 0 -301 65 -381 185 -71
107 -69 87 -72 718 l-4 567 155 0 155 0 3 -497z m4678 -213 l0 -710 -160 0
-160 0 0 710 0 710 160 0 160 0 0 -710z m-6305 -2360 c55 -12 131 -33 170 -47
98 -36 226 -95 223 -103 -2 -5 -25 -71 -53 -149 -38 -108 -54 -141 -65 -137
-8 2 -53 20 -100 40 -189 78 -386 112 -565 96 -462 -41 -769 -305 -851 -735
-19 -95 -21 -304 -5 -395 54 -297 240 -535 509 -650 256 -109 611 -113 850
-10 l52 22 0 249 0 249 -250 0 -250 0 0 155 0 155 415 0 415 0 0 -499 0 -499
-49 -31 c-109 -70 -350 -154 -530 -185 -121 -20 -355 -21 -481 -1 -486 78
-857 392 -986 835 -62 213 -61 542 2 770 55 201 153 376 293 523 170 178 387
298 641 353 167 36 433 33 615 -6z m1829 -1016 c102 -25 193 -79 282 -170 l82
-83 6 42 c3 23 8 72 12 110 l6 67 144 0 144 0 0 -710 0 -710 -155 0 -155 0 0
117 0 116 -57 -55 c-161 -152 -325 -215 -532 -205 -127 6 -199 24 -306 77
-235 115 -365 350 -365 659 0 286 112 509 325 651 154 102 380 140 569 94z
m2229 5 c132 -25 265 -140 292 -251 9 -35 16 -35 36 -2 25 41 128 141 179 174
136 87 315 115 475 75 92 -24 202 -111 244 -193 49 -97 51 -119 51 -709 l0
-553 -154 0 -155 0 -3 508 -3 507 -26 56 c-44 94 -122 136 -236 126 -132 -10
-256 -103 -327 -246 -62 -124 -66 -156 -66 -574 l0 -377 -160 0 -160 0 0 467
c0 293 -4 490 -11 529 -16 90 -53 145 -123 179 -50 24 -65 27 -129 23 -95 -6
-168 -41 -242 -116 -61 -61 -123 -176 -145 -267 -8 -32 -14 -186 -17 -432 l-5
-383 -154 0 -154 0 0 710 0 711 143 -3 142 -3 10 -122 c6 -67 13 -124 17 -128
3 -4 14 7 22 23 26 50 127 153 189 193 130 84 297 112 470 78z m2684 -5 c182
-40 337 -160 438 -339 33 -58 101 -243 92 -251 -2 -3 -235 -86 -518 -185 -605
-211 -599 -209 -599 -220 0 -19 122 -137 168 -162 154 -84 364 -73 522 27 30
19 59 31 63 27 11 -11 137 -214 137 -221 0 -10 -105 -67 -173 -94 -107 -43
-177 -57 -297 -63 -258 -11 -482 80 -635 258 -53 62 -118 187 -141 274 -25 92
-30 274 -10 370 20 98 88 240 150 315 187 226 504 330 803 264z m1563 -4 c56
-12 217 -85 258 -118 l23 -18 -62 -97 -62 -96 -30 25 c-64 54 -197 104 -277
104 -151 0 -258 -113 -215 -227 25 -66 82 -103 239 -156 169 -58 246 -95 318
-151 171 -135 167 -428 -7 -600 -103 -101 -222 -141 -420 -140 -99 1 -148 6
-208 22 -99 27 -206 83 -269 142 l-49 45 68 91 68 91 45 -38 c57 -50 160 -103
228 -119 31 -7 88 -11 132 -8 137 8 220 75 220 178 0 105 -60 154 -277 228
-279 95 -381 184 -414 365 -24 127 17 258 110 353 76 78 151 112 301 138 41 7
221 -2 280 -14z"/>
<path d="M6444 13762 l-181 -447 355 -3 c195 -1 357 0 360 2 5 6 -341 896
-348 896 -3 0 -86 -202 -186 -448z"/>
<path d="M14245 13589 c-174 -25 -321 -170 -360 -356 -14 -64 -21 -203 -10
-203 7 0 819 300 823 304 5 6 -39 78 -75 122 -82 103 -226 154 -378 133z"/>
<path d="M8465 9459 c-192 -32 -338 -166 -384 -353 -15 -62 -16 -186 -2 -249
38 -164 187 -320 346 -362 225 -58 453 44 549 245 31 65 31 66 31 235 0 168 0
171 -29 230 -65 132 -211 233 -369 254 -43 6 -81 10 -85 10 -4 -1 -29 -5 -57
-10z"/>
<path d="M13262 9469 c-98 -17 -196 -77 -260 -162 -64 -85 -94 -175 -100 -294
-2 -57 -1 -103 4 -103 12 0 815 298 822 304 10 11 -64 119 -110 161 -59 53
-118 81 -200 95 -71 11 -82 11 -156 -1z"/>
</g>
</svg>
