<?xml version="1.0" standalone="no"?>
<!DOCTYPE svg PUBLIC "-//W3C//DTD SVG 20010904//EN"
 "http://www.w3.org/TR/2001/REC-SVG-20010904/DTD/svg10.dtd">
<svg version="1.0" xmlns="http://www.w3.org/2000/svg"
 width="1080.000000pt" height="1080.000000pt" viewBox="0 0 1080.000000 1080.000000"
 preserveAspectRatio="xMidYMid meet">
<metadata>
Created by potrace 1.11, written by Peter Selinger 2001-2013
</metadata>
<g transform="translate(0.000000,1080.000000) scale(0.100000,-0.100000)"
fill="#000000" stroke="none">
<path d="M0 5400 l0 -5400 5400 0 5400 0 0 5400 0 5400 -5400 0 -5400 0 0
-5400z m5784 2676 c387 -63 722 -187 1036 -381 343 -213 680 -550 895 -895
521 -838 541 -1904 50 -2755 -332 -576 -853 -1012 -1476 -1236 -130 -46 -354
-102 -509 -126 -90 -14 -174 -18 -390 -18 -301 1 -401 12 -649 75 -804 203
-1500 793 -1837 1559 -102 232 -187 548 -214 793 -13 126 -13 452 1 576 123
1122 953 2075 2049 2352 110 28 313 64 410 73 107 10 538 -2 634 -17z"/>
<path d="M5328 7599 c-307 -482 -506 -1098 -585 -1809 -22 -201 -27 -900 -6
-921 20 -20 137 -29 470 -35 217 -5 374 -3 480 5 715 55 1364 245 1863 546
l110 66 0 67 c-1 120 -38 339 -86 504 -222 762 -841 1359 -1610 1554 -163 41
-302 62 -471 70 l-130 7 -35 -54z m222 -1729 c90 -206 171 -394 181 -417 l18
-43 -92 0 -92 0 -30 78 -31 77 -133 0 -134 0 -32 -75 -32 -75 -76 -3 c-43 -2
-77 0 -77 4 0 4 73 174 161 378 89 204 170 391 181 415 10 24 20 42 22 40 2
-2 77 -173 166 -379z m1673 321 c31 -12 57 -25 57 -29 0 -3 -10 -37 -22 -74
-20 -61 -25 -68 -43 -63 -99 31 -136 37 -201 33 -128 -8 -204 -74 -225 -195
-31 -176 75 -301 258 -303 34 0 73 4 87 10 23 8 26 15 26 60 l0 50 -70 0 -70
0 0 75 0 75 150 0 150 0 0 -174 0 -175 -52 -25 c-241 -117 -518 -42 -614 167
-27 57 -29 71 -28 177 0 95 4 125 22 172 45 112 123 187 238 228 81 28 251 24
337 -9z m-1243 -241 c0 -287 3 -306 59 -353 80 -67 190 -51 255 37 20 26 21
43 24 302 l3 274 80 0 81 0 -4 -287 c-3 -269 -4 -291 -24 -334 -31 -67 -87
-124 -152 -156 -50 -25 -68 -28 -152 -28 -76 0 -104 4 -142 22 -66 30 -132 95
-159 156 -23 50 -24 62 -27 340 l-3 287 80 0 81 0 0 -260z"/>
<path d="M5371 5889 c-1 -3 -19 -47 -40 -97 l-39 -92 79 0 79 0 -24 63 c-29
77 -54 134 -55 126z"/>
<path d="M4680 7535 c-675 -225 -1205 -756 -1428 -1430 -66 -197 -95 -349
-117 -597 l-5 -66 82 -55 c271 -177 580 -312 946 -413 69 -19 129 -34 132 -34
4 0 5 105 2 233 -17 808 151 1604 473 2245 62 121 78 162 66 162 -9 0 -77 -21
-151 -45z"/>
<path d="M7465 4884 c-500 -262 -1114 -425 -1790 -475 -155 -11 -732 -6 -834
7 l-43 6 7 -33 c16 -80 76 -312 103 -399 92 -294 218 -569 372 -804 l52 -79
143 6 c554 24 1044 222 1450 586 320 287 568 699 670 1111 37 151 37 150 23
149 -7 -1 -76 -34 -153 -75z"/>
<path d="M3180 4918 c0 -29 61 -242 95 -333 204 -544 605 -988 1120 -1240 129
-64 398 -162 403 -147 1 4 -22 52 -50 107 -170 322 -287 654 -360 1013 -17 86
-34 160 -38 165 -3 4 -78 25 -165 47 -315 79 -631 200 -877 336 -64 35 -120
64 -123 64 -3 0 -5 -6 -5 -12z"/>
</g>
</svg>
