<?xml version="1.0" standalone="no"?>
<!DOCTYPE svg PUBLIC "-//W3C//DTD SVG 20010904//EN"
 "http://www.w3.org/TR/2001/REC-SVG-20010904/DTD/svg10.dtd">
<svg version="1.0" xmlns="http://www.w3.org/2000/svg"
 width="512.000000pt" height="512.000000pt" viewBox="0 0 512.000000 512.000000"
 preserveAspectRatio="xMidYMid meet">
<metadata>
Created by potrace 1.11, written by Peter Selinger 2001-2013
</metadata>
<g transform="translate(0.000000,512.000000) scale(0.100000,-0.100000)"
fill="#000000" stroke="none">
<path d="M0 2560 l0 -2560 2560 0 2560 0 0 2560 0 2560 -2560 0 -2560 0 0
-2560z m2923 577 c70 -32 149 -105 177 -163 19 -38 20 -47 8 -71 -26 -55 -92
-43 -142 27 -40 55 -91 86 -168 100 -63 12 -153 -1 -215 -31 -83 -40 -106
-149 -46 -220 39 -46 93 -68 226 -90 153 -26 221 -55 286 -124 135 -143 98
-373 -76 -468 -216 -117 -519 -50 -630 140 -40 69 -14 118 60 111 25 -2 40
-14 71 -56 155 -208 565 -125 505 103 -25 92 -102 146 -239 165 -147 20 -216
48 -287 113 -58 53 -84 107 -90 182 -7 83 10 138 60 192 78 85 193 125 348
119 77 -2 106 -8 152 -29z m-1740 -9 c16 -19 17 -59 17 -525 l0 -504 -25 -24
c-29 -30 -64 -32 -96 -6 l-24 19 -3 489 c-2 268 0 503 3 520 11 60 88 79 128
31z m427 6 c12 -12 16 -58 20 -242 l5 -227 251 248 c153 151 258 247 270 247
37 0 64 -28 64 -67 0 -33 -14 -50 -191 -229 l-192 -193 18 -28 c10 -15 92
-128 182 -249 89 -122 167 -233 172 -246 13 -34 -11 -86 -43 -94 -48 -12 -48
-12 -296 326 -62 85 -119 162 -127 170 -11 12 -20 7 -63 -35 l-50 -49 0 -184
0 -183 -26 -26 c-20 -20 -31 -24 -57 -19 -69 13 -67 -7 -67 542 0 341 3 501
11 518 21 45 83 55 119 20z m2133 15 c14 -6 29 -21 35 -34 55 -121 412 -986
412 -999 0 -25 -46 -66 -73 -66 -41 0 -65 30 -109 140 l-43 105 -251 3 -251 2
-44 -106 c-43 -106 -73 -144 -111 -144 -26 0 -68 44 -68 72 0 13 93 246 208
518 171 409 211 497 232 507 31 16 33 16 63 2z"/>
<path d="M3697 2874 c-8 -22 -54 -132 -101 -246 l-85 -208 200 0 c109 0 199 4
199 8 0 10 -175 444 -188 468 -7 13 -12 8 -25 -22z"/>
</g>
</svg>
